<svg height="11.148" viewBox="0 0 17.318 11.148" width="17.318" xmlns="http://www.w3.org/2000/svg"><g fill="#e0e0e1"><path d="m159.2 156.416a2.787 2.787 0 1 0 2.787 2.787 2.789 2.789 0 0 0 -2.787-2.787zm-.211 1.961a.64.64 0 0 0 -.634.634h-.923a1.575 1.575 0 0 1 1.557-1.557z" transform="translate(-150.544 -153.629)"/><path d="m17.117 87.173c-.942-1.172-4.306-5-8.457-5s-7.516 3.827-8.46 5a.925.925 0 0 0 0 1.153c.942 1.172 4.306 5 8.457 5s7.516-3.825 8.457-5a.925.925 0 0 0 .003-1.153zm-8.458 4.613a4.036 4.036 0 1 1 4.041-4.036 4.036 4.036 0 0 1 -4.041 4.036z" transform="translate(0 -82.176)"/></g></svg>